<?xml version="1.0" encoding="UTF-8"?>
<svg id="Camada_2" data-name="Camada 2" xmlns="http://www.w3.org/2000/svg" viewBox="0 0 384 382.67" fill="#FFFFFF">
  <g id="Camada_1-2" data-name="Camada 1">
    <path d="M211.5,0c90.26,9.89,162.5,81.94,172.5,171.83v38.85c-12.52,104.68-103.42,180.16-210.84,171.29-31.27-3.94-60.11-13.32-86.45-30.99l-73.98,23.36,23.72-71.09C16.12,275.29,4.42,243.62,0,210.68l.65-38.32C10.4,81.29,81.82,10.71,172.98.5l38.52-.5ZM244.47,222.94l-13.93,18.84c-3.19,4.32-9.6,5.22-14.73,3.27-32.02-12.18-57.01-35.19-74.99-64.03-2.98-4.79-3.5-9.13.35-13.47l12.76-14.36c3.42-3.84,3.87-9.42,1.98-13.92l-18.64-44.38c-4.72-11.24-26.93-8.38-34.22-2.69-19.21,15.01-26.25,39.74-20.74,63.32,4.01,17.18,12.64,31.67,22.98,45.98,36.26,50.2,77.97,84.14,140.82,95.88,20.15,3.77,42.49-5.67,54.33-21.64,7.11-9.59,7.46-21.85,6.84-33.08-17.58-8.98-33.43-16.79-51.17-24.55-3.75-1.64-9.47,1.88-11.64,4.82Z"/>
  </g>
</svg>